<svg width="127" height="31" viewBox="0 0 127 31" fill="none" xmlns="http://www.w3.org/2000/svg">
<path d="M20.634 1.40009H26.03V28.0001H20.824V10.7481L13.338 23.0981H12.73L5.244 10.7861V28.0001H0V1.40009H5.396L13.034 13.9781L20.634 1.40009Z" fill="white"/>
<path d="M53.3683 24.5421C50.683 27.2021 47.415 28.5321 43.5643 28.5321C39.7137 28.5321 36.4457 27.2021 33.7603 24.5421C31.1003 21.8314 29.7703 18.5508 29.7703 14.7001C29.7703 10.8241 31.1003 7.55609 33.7603 4.89609C36.4457 2.21076 39.7137 0.86809 43.5643 0.86809C47.415 0.86809 50.683 2.21076 53.3683 4.89609C56.0537 7.55609 57.3963 10.8241 57.3963 14.7001C57.3963 18.5761 56.0537 21.8568 53.3683 24.5421ZM37.4463 20.9701C39.0677 22.5914 41.107 23.4021 43.5643 23.4021C46.0217 23.4021 48.061 22.5914 49.6823 20.9701C51.329 19.3234 52.1523 17.2334 52.1523 14.7001C52.1523 12.1668 51.329 10.0768 49.6823 8.43009C48.0357 6.78342 45.9963 5.96009 43.5643 5.96009C41.1323 5.96009 39.093 6.78342 37.4463 8.43009C35.7997 10.0768 34.9763 12.1668 34.9763 14.7001C34.9763 17.2334 35.7997 19.3234 37.4463 20.9701Z" fill="white"/>
<path d="M83.464 24.5421C80.7787 27.2021 77.5107 28.5321 73.66 28.5321C69.8094 28.5321 66.5414 27.2021 63.856 24.5421C61.196 21.8314 59.866 18.5508 59.866 14.7001C59.866 10.8241 61.196 7.55609 63.856 4.89609C66.5414 2.21076 69.8094 0.86809 73.66 0.86809C77.5107 0.86809 80.7787 2.21076 83.464 4.89609C86.1494 7.55609 87.492 10.8241 87.492 14.7001C87.492 18.5761 86.1494 21.8568 83.464 24.5421ZM67.542 20.9701C69.1634 22.5914 71.2027 23.4021 73.66 23.4021C76.1174 23.4021 78.1567 22.5914 79.778 20.9701C81.4247 19.3234 82.248 17.2334 82.248 14.7001C82.248 12.1668 81.4247 10.0768 79.778 8.43009C78.1314 6.78342 76.092 5.96009 73.66 5.96009C71.228 5.96009 69.1887 6.78342 67.542 8.43009C65.8954 10.0768 65.072 12.1668 65.072 14.7001C65.072 17.2334 65.8954 19.3234 67.542 20.9701Z" fill="white"/>
<path d="M103.062 28.0001H96.5642L87.6342 1.40009H93.3342L99.8322 21.8441L106.292 1.40009H112.03L103.062 28.0001Z" fill="white"/>
<path d="M116.958 14.3961C116.958 15.2068 118.111 15.9034 120.416 16.4861C121.227 16.6634 121.961 16.8788 122.62 17.1321C123.279 17.3601 123.937 17.7021 124.596 18.1581C125.28 18.5888 125.812 19.1714 126.192 19.9061C126.572 20.6408 126.762 21.4894 126.762 22.4521C126.762 24.4028 126.027 25.9101 124.558 26.9741C123.089 28.0128 121.277 28.5321 119.124 28.5321C115.223 28.5321 112.563 27.0248 111.144 24.0101L115.4 21.6161C115.983 23.2628 117.224 24.0861 119.124 24.0861C120.872 24.0861 121.746 23.5414 121.746 22.4521C121.746 21.6414 120.593 20.9448 118.288 20.3621C117.427 20.1341 116.692 19.9061 116.084 19.6781C115.476 19.4501 114.817 19.1208 114.108 18.6901C113.399 18.2341 112.854 17.6641 112.474 16.9801C112.119 16.2708 111.942 15.4474 111.942 14.5101C111.942 12.6354 112.626 11.1661 113.994 10.1021C115.387 9.01276 117.11 8.46809 119.162 8.46809C120.707 8.46809 122.113 8.82276 123.38 9.53209C124.647 10.2161 125.647 11.2041 126.382 12.4961L122.202 14.7761C121.594 13.4841 120.581 12.8381 119.162 12.8381C118.529 12.8381 117.997 12.9901 117.566 13.2941C117.161 13.5728 116.958 13.9401 116.958 14.3961Z" fill="white"/>
<path d="M59.13 15.3001C59.13 23.7501 52.2801 30.6001 43.8314 30.6001C43.8314 29.9448 43.8314 29.2891 43.8314 28.6329C51.2436 28.6329 57.1642 22.7123 57.1642 15.3001C57.8195 15.3001 58.4748 15.3001 59.13 15.3001ZM57.1642 15.3001C57.1642 22.7123 51.2436 28.6329 43.8314 28.6329C43.8314 27.8595 43.8314 27.086 43.8314 26.3125C49.9129 26.3125 54.8424 21.3816 54.8424 15.3001C55.6159 15.3001 56.3898 15.3001 57.1642 15.3001ZM54.8424 15.3001C54.8424 21.3816 49.9129 26.3125 43.8314 26.3125C43.8314 24.8581 43.8314 23.4042 43.8314 21.9507C47.5031 21.9507 50.4806 18.9732 50.4806 15.3001C51.9341 15.3001 53.388 15.3001 54.8424 15.3001ZM50.4806 15.3001C50.4806 18.9732 47.5031 21.9507 43.8314 21.9507C43.8314 19.7338 43.8314 17.517 43.8314 15.3001C46.0473 15.3001 48.2637 15.3001 50.4806 15.3001ZM43.8314 30.6001C35.3813 30.6001 28.5314 23.7501 28.5314 15.3001C29.1866 15.3001 29.8419 15.3001 30.4971 15.3001C30.4971 22.7123 36.4178 28.6329 43.8314 28.6329C43.8314 29.2891 43.8314 29.9448 43.8314 30.6001ZM43.8314 28.6329C36.4178 28.6329 30.4971 22.7123 30.4971 15.3001C31.2715 15.3001 32.0455 15.3001 32.819 15.3001C32.819 21.3816 37.7485 26.3125 43.8314 26.3125C43.8314 27.086 43.8314 27.8595 43.8314 28.6329ZM43.8314 26.3125C37.7485 26.3125 32.819 21.3816 32.819 15.3001C34.2724 15.3001 35.7264 15.3001 37.1808 15.3001C37.1808 18.9732 40.1583 21.9507 43.8314 21.9507C43.8314 23.4042 43.8314 24.8581 43.8314 26.3125ZM43.8314 21.9507C40.1583 21.9507 37.1808 18.9732 37.1808 15.3001C39.3976 15.3001 41.6145 15.3001 43.8314 15.3001C43.8314 17.517 43.8314 19.7338 43.8314 21.9507ZM28.53 15.3001C28.5314 6.85003 35.3813 9.15527e-05 43.8314 9.15527e-05C43.8314 0.656264 43.8314 1.31197 43.8314 1.96723C36.4178 1.96723 30.4971 7.8879 30.4971 15.3001C29.8419 15.3001 29.1866 15.3001 28.5314 15.3001H28.53ZM30.4958 15.3001C30.4958 7.8879 36.4164 1.96723 43.83 1.96723C43.83 2.7407 43.83 3.51464 43.83 4.28903C37.7471 4.28903 32.8176 9.21857 32.8176 15.3001C32.0441 15.3001 31.2702 15.3001 30.4958 15.3001ZM32.8176 15.3001C32.8176 9.21857 37.7471 4.28903 43.83 4.28903C43.83 5.74251 43.83 7.19644 43.83 8.65084C40.1569 8.65084 37.1794 11.6284 37.1794 15.3001C35.725 15.3001 34.271 15.3001 32.8176 15.3001ZM37.1794 15.3001C37.1794 11.6284 40.1569 8.65084 43.83 8.65084C43.83 10.8677 43.83 13.0841 43.83 15.3001C41.6131 15.3001 39.3963 15.3001 37.1794 15.3001ZM43.83 9.15527e-05C52.2787 9.15527e-05 59.1286 6.85003 59.1286 15.3001C58.4734 15.3001 57.8181 15.3001 57.1629 15.3001C57.1629 7.8879 51.2422 1.96723 43.83 1.96723C43.83 1.31197 43.83 0.656264 43.83 9.15527e-05ZM43.83 1.96723C51.2422 1.96723 57.1629 7.8879 57.1629 15.3001C56.3885 15.3001 55.6145 15.3001 54.8411 15.3001C54.8411 9.21857 49.9115 4.28903 43.83 4.28903C43.83 3.51464 43.83 2.7407 43.83 1.96723ZM43.83 4.28903C49.9115 4.28903 54.8411 9.21857 54.8411 15.3001C53.3867 15.3001 51.9327 15.3001 50.4793 15.3001C50.4793 11.6284 47.5017 8.65084 43.83 8.65084C43.83 7.19644 43.83 5.74251 43.83 4.28903ZM43.83 8.65084C47.5017 8.65084 50.4793 11.6284 50.4793 15.3001C48.2624 15.3001 46.046 15.3001 43.83 15.3001C43.83 13.0841 43.83 10.8677 43.83 8.65084Z" fill="url(#paint0_linear_25_465)"/>
<path d="M53.2643 5.86708C56.4604 9.0618 56.4604 14.2443 53.2643 17.439C53.0169 17.1916 52.769 16.9437 52.5206 16.6953C55.3236 13.8924 55.3236 9.41372 52.5206 6.61078C52.769 6.36242 53.0169 6.11452 53.2643 5.86708ZM52.5206 6.61078C55.3236 9.41372 55.3236 13.8924 52.5206 16.6953C52.2283 16.403 51.9355 16.1102 51.6422 15.8169C53.9434 13.5171 53.9434 9.78762 51.6422 7.48781C51.9355 7.19547 52.2283 6.90312 52.5206 6.61078ZM51.6422 7.48781C53.9434 9.78762 53.9434 13.5171 51.6422 15.8169C51.0924 15.267 50.5425 14.7172 49.9926 14.1673C51.3824 12.7789 51.3824 10.5272 49.9926 9.13741C50.5425 8.58754 51.0924 8.03768 51.6422 7.48781ZM49.9926 9.13741C51.3824 10.5272 51.3824 12.7789 49.9926 14.1673C49.155 13.3297 48.3169 12.4916 47.4784 11.653C48.3169 10.8145 49.155 9.97595 49.9926 9.13741ZM53.2643 17.439C50.0682 20.6351 44.8871 20.6351 41.6911 17.439C41.9394 17.1916 42.1878 16.9437 42.4361 16.6953C45.2391 19.4982 49.7177 19.4982 52.5206 16.6953C52.769 16.9437 53.0169 17.1916 53.2643 17.439ZM52.5206 16.6953C49.7177 19.4982 45.2391 19.4982 42.4361 16.6953C42.7285 16.403 43.0208 16.1102 43.3132 15.8169C45.613 18.1181 49.3424 18.1181 51.6422 15.8169C51.9355 16.1102 52.2283 16.403 52.5206 16.6953ZM51.6422 15.8169C49.3424 18.1181 45.613 18.1181 43.3132 15.8169C43.863 15.267 44.4129 14.7172 44.9627 14.1673C46.3525 15.5571 48.6042 15.5571 49.9926 14.1673C50.5425 14.7172 51.0924 15.267 51.6422 15.8169ZM49.9926 14.1673C48.6042 15.5571 46.3525 15.5571 44.9627 14.1673C45.8013 13.3297 46.6398 12.4916 47.4784 11.653C48.3169 12.4916 49.155 13.3297 49.9926 14.1673ZM41.6911 17.439C38.4963 14.2443 38.4963 9.0618 41.6911 5.8657C41.9394 6.11406 42.1878 6.36242 42.4361 6.61078C39.6318 9.41372 39.6318 13.8924 42.4361 16.6953C42.1878 16.9437 41.9394 17.1916 41.6911 17.439ZM42.4361 16.6953C39.6318 13.8924 39.6318 9.41372 42.4361 6.61078C42.7285 6.90312 43.0208 7.19547 43.3132 7.48781C41.0133 9.78762 41.0133 13.5171 43.3132 15.8169C43.0208 16.1102 42.7285 16.403 42.4361 16.6953ZM43.3132 15.8169C41.0133 13.5171 41.0133 9.78762 43.3132 7.48781C43.863 8.03768 44.4129 8.58754 44.9627 9.13741C43.5743 10.5272 43.5743 12.7789 44.9627 14.1673C44.4129 14.7172 43.863 15.267 43.3132 15.8169ZM44.9627 14.1673C43.5743 12.7789 43.5743 10.5272 44.9627 9.13741C45.8013 9.97595 46.6398 10.8145 47.4784 11.653C46.6398 12.4916 45.8013 13.3297 44.9627 14.1673ZM41.6911 5.8657C44.8871 2.67099 50.0682 2.67099 53.2643 5.86708C53.0169 6.11452 52.769 6.36242 52.5206 6.61078C49.7177 3.80646 45.2391 3.80646 42.4361 6.61078C42.1878 6.36242 41.9394 6.11406 41.6911 5.8657ZM42.4361 6.61078C45.2391 3.80646 49.7177 3.80646 52.5206 6.61078C52.2283 6.90312 51.9355 7.19547 51.6422 7.48781C49.3424 5.188 45.613 5.188 43.3132 7.48781C43.0208 7.19547 42.7285 6.90312 42.4361 6.61078ZM43.3132 7.48781C45.613 5.188 49.3424 5.188 51.6422 7.48781C51.0924 8.03768 50.5425 8.58754 49.9926 9.13741C48.6042 7.749 46.3525 7.749 44.9627 9.13741C44.4129 8.58754 43.863 8.03768 43.3132 7.48781ZM44.9627 9.13741C46.3525 7.749 48.6042 7.749 49.9926 9.13741C49.155 9.97595 48.3169 10.8145 47.4784 11.653C46.6398 10.8145 45.8013 9.97595 44.9627 9.13741Z" fill="url(#paint1_linear_25_465)"/>
<path d="M52.632 5.2966C56.1429 8.14215 56.6804 13.2958 53.8348 16.8067C53.5626 16.5858 53.2904 16.3649 53.0183 16.1441C55.5146 13.0648 55.0486 8.61092 51.9694 6.11316C52.1902 5.84097 52.4111 5.56878 52.632 5.2966ZM51.9694 6.11316C55.0486 8.61092 55.5146 13.0648 53.0183 16.1441C52.6966 15.8838 52.3749 15.6231 52.0532 15.3619C54.1015 12.8353 53.7138 9.12642 51.1872 7.07817C51.4484 6.7565 51.7091 6.43483 51.9694 6.11316ZM51.1872 7.07817C53.7138 9.12642 54.1015 12.8353 52.0532 15.3619C51.4493 14.8725 50.8454 14.3827 50.2414 13.8924C51.4786 12.3665 51.2436 10.1272 49.7177 8.88997C50.208 8.28603 50.6978 7.68211 51.1872 7.07817ZM49.7177 8.88997C51.2436 10.1272 51.4786 12.3665 50.2414 13.8924C49.3204 13.1459 47.1017 12.0847 46.1807 11.3369C46.9271 10.4172 48.9712 9.81099 49.7177 8.88997ZM53.8348 16.8067C50.9879 20.3176 45.8356 20.8564 42.3247 18.0095C42.5456 17.7373 42.7665 17.4651 42.9873 17.1929C46.0666 19.6893 50.5205 19.2233 53.0183 16.1441C53.2904 16.3649 53.5626 16.5858 53.8348 16.8067ZM53.0183 16.1441C50.5205 19.2233 46.0666 19.6893 42.9873 17.1929C43.2476 16.8713 43.5083 16.5496 43.7695 16.2279C46.2962 18.2762 50.005 17.8885 52.0532 15.3619C52.3749 15.6231 52.6966 15.8838 53.0183 16.1441ZM52.0532 15.3619C50.005 17.8885 46.2962 18.2762 43.7695 16.2279C44.2589 15.624 44.7483 15.0201 45.2377 14.4161C46.7635 15.6533 49.0042 15.4182 50.2414 13.8924C50.8454 14.3827 51.4493 14.8725 52.0532 15.3619ZM50.2414 13.8924C49.0042 15.4182 46.7635 15.6533 45.2377 14.4161C45.9855 13.4951 45.4342 12.2579 46.1807 11.3369C47.1017 12.0847 49.3204 13.1459 50.2414 13.8924ZM42.3247 18.0095C38.8139 15.1626 38.275 10.0103 41.1219 6.49943C41.3941 6.72029 41.6663 6.94116 41.9385 7.16203C39.4421 10.2413 39.9081 14.6952 42.9873 17.1929C42.7665 17.4651 42.5456 17.7373 42.3247 18.0095ZM42.9873 17.1929C39.9081 14.6952 39.4421 10.2413 41.9385 7.16203C42.2601 7.4223 42.5818 7.68302 42.9035 7.9442C40.8552 10.4708 41.2415 14.1797 43.7695 16.2279C43.5083 16.5496 43.2476 16.8713 42.9873 17.1929ZM43.7695 16.2279C41.2415 14.1797 40.8552 10.4708 42.9035 7.9442C43.5074 8.43358 44.1114 8.92297 44.7153 9.41235C43.4781 10.9382 43.7118 13.1789 45.2377 14.4161C44.7483 15.0201 44.2589 15.624 43.7695 16.2279ZM45.2377 14.4161C43.7118 13.1789 43.4781 10.9382 44.7153 9.41235C45.6363 10.1602 45.2597 10.5904 46.1807 11.3369C45.4342 12.2579 45.9855 13.4951 45.2377 14.4161ZM41.1219 6.49943C43.9675 2.98854 49.1211 2.44967 52.632 5.2966C52.4111 5.56878 52.1902 5.84097 51.9694 6.11316C48.8901 3.61677 44.4349 4.08278 41.9385 7.16203C41.6663 6.94116 41.3941 6.72029 41.1219 6.49943ZM41.9385 7.16203C44.4349 4.08278 48.8901 3.61677 51.9694 6.11316C51.7091 6.43483 51.4484 6.7565 51.1872 7.07817C48.6606 5.02993 44.9517 5.41757 42.9035 7.9442C42.5818 7.68302 42.2601 7.4223 41.9385 7.16203ZM42.9035 7.9442C44.9517 5.41757 48.6606 5.02993 51.1872 7.07817C50.6978 7.68211 50.208 8.28603 49.7177 8.88997C48.1918 7.65277 45.9525 7.88647 44.7153 9.41235C44.1114 8.92297 43.5074 8.43358 42.9035 7.9442ZM44.7153 9.41235C45.9525 7.88647 48.1918 7.65277 49.7177 8.88997C48.9712 9.81099 46.9271 10.4172 46.1807 11.3369C45.2597 10.5904 45.6363 10.1602 44.7153 9.41235Z" fill="url(#paint2_linear_25_465)"/>
<path d="M59.53 15.3C59.53 23.75 66.3799 30.6 74.83 30.6C74.83 29.9447 74.83 29.289 74.83 28.6329C67.4178 28.6329 61.4971 22.7122 61.4971 15.3C60.841 15.3 60.1853 15.3 59.53 15.3ZM61.4971 15.3C61.4971 22.7122 67.4178 28.6329 74.83 28.6329C74.83 27.8594 74.83 27.0859 74.83 26.3124C68.7485 26.3124 63.8176 21.3815 63.8176 15.3C63.0441 15.3 62.2706 15.3 61.4971 15.3ZM63.8176 15.3C63.8176 21.3815 68.7485 26.3124 74.83 26.3124C74.83 24.858 74.83 23.4041 74.83 21.9506C71.1569 21.9506 68.1808 18.9731 68.1808 15.3C66.7264 15.3 65.272 15.3 63.8176 15.3ZM68.1808 15.3C68.1808 18.9731 71.1569 21.9506 74.83 21.9506C74.83 19.7337 74.83 17.5169 74.83 15.3C72.6131 15.3 70.3967 15.3 68.1808 15.3ZM74.83 30.6C83.2801 30.6 90.13 23.75 90.13 15.3C89.4747 15.3 88.819 15.3 88.1629 15.3C88.1629 22.7122 82.2422 28.6329 74.83 28.6329C74.83 29.289 74.83 29.9447 74.83 30.6ZM74.83 28.6329C82.2422 28.6329 88.1629 22.7122 88.1629 15.3C87.3894 15.3 86.6159 15.3 85.8424 15.3C85.8424 21.3815 80.9115 26.3124 74.83 26.3124C74.83 27.0859 74.83 27.8594 74.83 28.6329ZM74.83 26.3124C80.9115 26.3124 85.8424 21.3815 85.8424 15.3C84.388 15.3 82.9336 15.3 81.4792 15.3C81.4792 18.9731 78.5031 21.9506 74.83 21.9506C74.83 23.4041 74.83 24.858 74.83 26.3124ZM74.83 21.9506C78.5031 21.9506 81.4792 18.9731 81.4792 15.3C79.2633 15.3 77.0469 15.3 74.83 15.3C74.83 17.5169 74.83 19.7337 74.83 21.9506ZM90.13 15.3C90.13 6.84994 83.2801 0 74.83 0C74.83 0.656173 74.83 1.31188 74.83 1.96713C82.2422 1.96713 88.1629 7.88781 88.1629 15.3C88.819 15.3 89.4747 15.3 90.13 15.3ZM88.1629 15.3C88.1629 7.88781 82.2422 1.96713 74.83 1.96713C74.83 2.74061 74.83 3.51455 74.83 4.28894C80.9115 4.28894 85.8424 9.21848 85.8424 15.3C86.6159 15.3 87.3894 15.3 88.1629 15.3ZM85.8424 15.3C85.8424 9.21848 80.9115 4.28894 74.83 4.28894C74.83 5.74242 74.83 7.19635 74.83 8.65075C78.5031 8.65075 81.4792 11.6283 81.4792 15.3C82.9336 15.3 84.388 15.3 85.8424 15.3ZM81.4792 15.3C81.4792 11.6283 78.5031 8.65075 74.83 8.65075C74.83 10.8676 74.83 13.084 74.83 15.3C77.0469 15.3 79.2633 15.3 81.4792 15.3ZM74.83 0C66.3799 0 59.53 6.84994 59.53 15.3C60.1853 15.3 60.841 15.3 61.4971 15.3C61.4971 7.88781 67.4178 1.96713 74.83 1.96713C74.83 1.31188 74.83 0.656173 74.83 0ZM74.83 1.96713C67.4178 1.96713 61.4971 7.88781 61.4971 15.3C62.2706 15.3 63.0441 15.3 63.8176 15.3C63.8176 9.21848 68.7485 4.28894 74.83 4.28894C74.83 3.51455 74.83 2.74061 74.83 1.96713ZM74.83 4.28894C68.7485 4.28894 63.8176 9.21848 63.8176 15.3C65.272 15.3 66.7264 15.3 68.1808 15.3C68.1808 11.6283 71.1569 8.65075 74.83 8.65075C74.83 7.19635 74.83 5.74242 74.83 4.28894ZM74.83 8.65075C71.1569 8.65075 68.1808 11.6283 68.1808 15.3C70.3967 15.3 72.6131 15.3 74.83 15.3C74.83 13.084 74.83 10.8676 74.83 8.65075Z" fill="url(#paint3_linear_25_465)"/>
<path d="M76.969 5.86711C80.1651 9.06183 80.1651 14.2443 76.969 17.439C76.7216 17.1916 76.4737 16.9437 76.2253 16.6953C79.0283 13.8924 79.0283 9.41375 76.2253 6.61081C76.4728 6.36245 76.7207 6.11455 76.969 5.86711ZM76.2253 6.61081C79.0283 9.41375 79.0283 13.8924 76.2253 16.6953C75.933 16.403 75.6402 16.1102 75.3469 15.8169C77.6467 13.5171 77.6467 9.78766 75.3469 7.48785C75.6402 7.1955 75.933 6.90316 76.2253 6.61081ZM75.3469 7.48785C77.6467 9.78766 77.6467 13.5171 75.3469 15.8169C74.797 15.2671 74.2472 14.7172 73.6973 14.1673C75.0871 12.7789 75.0871 10.5272 73.6973 9.13744C74.2472 8.58758 74.797 8.03771 75.3469 7.48785ZM73.6973 9.13744C75.0871 10.5272 75.0871 12.7789 73.6973 14.1673C72.8588 13.3297 72.0207 12.4916 71.1831 11.6531C72.0207 10.8145 72.8588 9.97599 73.6973 9.13744ZM76.969 17.439C73.7729 20.6351 68.5918 20.6351 65.3957 17.439C65.6441 17.1916 65.892 16.9437 66.1394 16.6953C68.9437 19.4983 73.4224 19.4983 76.2253 16.6953C76.4737 16.9437 76.7216 17.1916 76.969 17.439ZM76.2253 16.6953C73.4224 19.4983 68.9437 19.4983 66.1394 16.6953C66.4327 16.403 66.7255 16.1102 67.0178 15.8169C69.3176 18.1181 73.0471 18.1181 75.3469 15.8169C75.6402 16.1102 75.933 16.403 76.2253 16.6953ZM75.3469 15.8169C73.0471 18.1181 69.3176 18.1181 67.0178 15.8169C67.5677 15.2671 68.1176 14.7172 68.6674 14.1673C70.0572 15.5571 72.3089 15.5571 73.6973 14.1673C74.2472 14.7172 74.797 15.2671 75.3469 15.8169ZM73.6973 14.1673C72.3089 15.5571 70.0572 15.5571 68.6674 14.1673C69.506 13.3297 70.3445 12.4916 71.1831 11.6531C72.0207 12.4916 72.8588 13.3297 73.6973 14.1673ZM65.3957 17.439C62.201 14.2443 62.201 9.06183 65.3957 5.86574C65.6441 6.11409 65.892 6.36245 66.1394 6.61081C63.3365 9.41375 63.3365 13.8924 66.1394 16.6953C65.892 16.9437 65.6441 17.1916 65.3957 17.439ZM66.1394 16.6953C63.3365 13.8924 63.3365 9.41375 66.1394 6.61081C66.4327 6.90316 66.7255 7.1955 67.0178 7.48785C64.718 9.78766 64.718 13.5171 67.0178 15.8169C66.7255 16.1102 66.4327 16.403 66.1394 16.6953ZM67.0178 15.8169C64.718 13.5171 64.718 9.78766 67.0178 7.48785C67.5677 8.03771 68.1176 8.58758 68.6674 9.13744C67.279 10.5272 67.279 12.7789 68.6674 14.1673C68.1176 14.7172 67.5677 15.2671 67.0178 15.8169ZM68.6674 14.1673C67.279 12.7789 67.279 10.5272 68.6674 9.13744C69.506 9.97599 70.3445 10.8145 71.1831 11.6531C70.3445 12.4916 69.506 13.3297 68.6674 14.1673ZM65.3957 5.86574C68.5918 2.67102 73.7729 2.67102 76.969 5.86711C76.7207 6.11455 76.4728 6.36245 76.2253 6.61081C73.4224 3.8065 68.9437 3.8065 66.1394 6.61081C65.892 6.36245 65.6441 6.11409 65.3957 5.86574ZM66.1394 6.61081C68.9437 3.8065 73.4224 3.8065 76.2253 6.61081C75.933 6.90316 75.6402 7.1955 75.3469 7.48785C73.0471 5.18804 69.3176 5.18804 67.0178 7.48785C66.7255 7.1955 66.4327 6.90316 66.1394 6.61081ZM67.0178 7.48785C69.3176 5.18804 73.0471 5.18804 75.3469 7.48785C74.797 8.03771 74.2472 8.58758 73.6973 9.13744C72.3089 7.74903 70.0572 7.74903 68.6674 9.13744C68.1176 8.58758 67.5677 8.03771 67.0178 7.48785ZM68.6674 9.13744C70.0572 7.74903 72.3089 7.74903 73.6973 9.13744C72.8588 9.97599 72.0207 10.8145 71.1831 11.6531C70.3445 10.8145 69.506 9.97599 68.6674 9.13744Z" fill="url(#paint4_linear_25_465)"/>
<path d="M76.3366 5.29655C79.8475 8.1421 80.385 13.2957 77.5395 16.8066C77.2673 16.5858 76.9946 16.3649 76.7215 16.144C79.2193 13.0648 78.7533 8.61087 75.674 6.11311C75.8949 5.84092 76.1158 5.56873 76.3366 5.29655ZM75.674 6.11311C78.7533 8.61087 79.2193 13.0648 76.7215 16.144C76.4008 15.8837 76.0796 15.623 75.7579 15.3618C77.8061 12.8352 77.4185 9.12637 74.8919 7.07812C75.1521 6.75645 75.4129 6.43478 75.674 6.11311ZM74.8919 7.07812C77.4185 9.12637 77.8061 12.8352 75.7579 15.3618C75.154 14.8725 74.5496 14.3826 73.9447 13.8923C75.1819 12.3664 74.9482 10.1271 73.4223 8.88992C73.9126 8.28598 74.4025 7.68206 74.8919 7.07812ZM73.4223 8.88992C74.9482 10.1271 75.1819 12.3664 73.9447 13.8923C73.0251 13.1459 70.805 12.0846 69.8853 11.3368C70.6318 10.4172 72.6759 9.81094 73.4223 8.88992ZM77.5395 16.8066C74.6925 20.3175 69.5389 20.8564 66.0294 18.0094C66.2503 17.7373 66.4711 17.4651 66.692 17.1929C69.7712 19.6893 74.2251 19.2233 76.7215 16.144C76.9946 16.3649 77.2673 16.5858 77.5395 16.8066ZM76.7215 16.144C74.2251 19.2233 69.7712 19.6893 66.692 17.1929C66.9523 16.8712 67.2125 16.5495 67.4728 16.2279C69.9994 18.2761 73.7096 17.8885 75.7579 15.3618C76.0796 15.623 76.4008 15.8837 76.7215 16.144ZM75.7579 15.3618C73.7096 17.8885 69.9994 18.2761 67.4728 16.2279C67.9631 15.6239 68.4529 15.02 68.9423 14.4161C70.4682 15.6533 72.7089 15.4182 73.9447 13.8923C74.5496 14.3826 75.154 14.8725 75.7579 15.3618ZM73.9447 13.8923C72.7089 15.4182 70.4682 15.6533 68.9423 14.4161C69.6888 13.4951 69.1375 12.2579 69.8853 11.3368C70.805 12.0846 73.0251 13.1459 73.9447 13.8923ZM66.0294 18.0094C62.5185 15.1625 61.9796 10.0103 64.8266 6.49938C65.0988 6.72024 65.3709 6.94111 65.6431 7.16198C63.1467 10.2412 63.6114 14.6951 66.692 17.1929C66.4711 17.4651 66.2503 17.7373 66.0294 18.0094ZM66.692 17.1929C63.6114 14.6951 63.1467 10.2412 65.6431 7.16198C65.9648 7.42225 66.2865 7.68296 66.6081 7.94415C64.5585 10.4708 64.9462 14.1796 67.4728 16.2279C67.2125 16.5495 66.9523 16.8712 66.692 17.1929ZM67.4728 16.2279C64.9462 14.1796 64.5585 10.4708 66.6081 7.94415C67.2121 8.43353 67.816 8.92292 68.4199 9.4123C67.1827 10.9382 67.4164 13.1789 68.9423 14.4161C68.4529 15.02 67.9631 15.6239 67.4728 16.2279ZM68.9423 14.4161C67.4164 13.1789 67.1827 10.9382 68.4199 9.4123C69.341 10.1601 68.9643 10.5904 69.8853 11.3368C69.1375 12.2579 69.6888 13.4951 68.9423 14.4161ZM64.8266 6.49938C67.6721 2.98849 72.8257 2.44962 76.3366 5.29655C76.1158 5.56873 75.8949 5.84092 75.674 6.11311C72.5948 3.61672 68.1395 4.08273 65.6431 7.16198C65.3709 6.94111 65.0988 6.72024 64.8266 6.49938ZM65.6431 7.16198C68.1395 4.08273 72.5948 3.61672 75.674 6.11311C75.4129 6.43478 75.1521 6.75645 74.8919 7.07812C72.3652 5.02987 68.6564 5.41752 66.6081 7.94415C66.2865 7.68296 65.9648 7.42225 65.6431 7.16198ZM66.6081 7.94415C68.6564 5.41752 72.3652 5.02987 74.8919 7.07812C74.4025 7.68206 73.9126 8.28598 73.4223 8.88992C71.8965 7.65272 69.6571 7.88642 68.4199 9.4123C67.816 8.92292 67.2121 8.43353 66.6081 7.94415ZM68.4199 9.4123C69.6571 7.88642 71.8965 7.65272 73.4223 8.88992C72.6759 9.81094 70.6318 10.4172 69.8853 11.3368C68.9643 10.5904 69.341 10.1601 68.4199 9.4123Z" fill="url(#paint5_linear_25_465)"/>
<defs>
<linearGradient id="paint0_linear_25_465" x1="59.1307" y1="15.3004" x2="57.1638" y2="15.3004" gradientUnits="userSpaceOnUse">
<stop stop-color="#CDCFD7"/>
<stop offset="1" stop-color="#F2F2F5"/>
</linearGradient>
<linearGradient id="paint1_linear_25_465" x1="52.5208" y1="16.6953" x2="43.3134" y2="7.48798" gradientUnits="userSpaceOnUse">
<stop/>
<stop offset="1" stop-color="#7A7A7A"/>
</linearGradient>
<linearGradient id="paint2_linear_25_465" x1="53.0176" y1="16.1441" x2="42.9031" y2="7.94367" gradientUnits="userSpaceOnUse">
<stop/>
<stop offset="1" stop-color="#939393"/>
</linearGradient>
<linearGradient id="paint3_linear_25_465" x1="59.5301" y1="15.3004" x2="61.497" y2="15.3004" gradientUnits="userSpaceOnUse">
<stop stop-color="#CDCFD7"/>
<stop offset="1" stop-color="#F2F2F5"/>
</linearGradient>
<linearGradient id="paint4_linear_25_465" x1="76.2252" y1="16.6953" x2="67.0178" y2="7.48798" gradientUnits="userSpaceOnUse">
<stop/>
<stop offset="1" stop-color="#7A7A7A"/>
</linearGradient>
<linearGradient id="paint5_linear_25_465" x1="76.7219" y1="16.1441" x2="66.6074" y2="7.94366" gradientUnits="userSpaceOnUse">
<stop/>
<stop offset="1" stop-color="#939393"/>
</linearGradient>
</defs>
</svg>
